<svg viewBox="0,0,320,320" version="1.1" xmlns="http://www.w3.org/2000/svg">
  <g>
    <path d="M 257.13 37 C 262.65 43.68 266.24 52 268.59 60.34 C 269.77 64.5 268.05 68.99 267.34 73.25 C 266.96 75.57 267.5 80.94 265.34 80 C 260.73 77.99 258.84 72.3 255.84 68.25 C 254.39 66.29 254.13 60.8 252 62 C 244.09 66.47 244.24 86.42 243.22 93.25 C 242.56 97.64 243.61 103.05 240.59 106.31 C 230.03 117.74 215.84 107.63 212.28 124.22 C 209.56 136.9 206.2 149.75 206.56 162.72 C 206.73 168.7 211.98 173.46 213.81 179.16 C 214.81 182.24 216.85 186.17 214.97 188.81 C 213.79 190.48 197.57 192.53 195.97 190 C 193.69 186.38 193.4 163.45 186.75 158.41 C 184.64 156.81 181.53 159.29 178.94 159.81 C 175.25 160.55 171.51 161.12 167.91 162.19 C 157.46 165.29 161.13 181.39 162.53 189.63 C 163.36 194.52 168.37 199.41 166.47 204 C 164.63 208.45 158.36 209.47 153.75 210.84 C 151.32 211.57 148.53 211.04 146.19 210.06 C 131.26 203.83 142.83 187.46 142.16 175.69 C 142.09 174.6 140.38 174.41 139.66 173.59 C 137.33 170.97 136.98 165.9 133.59 165 C 132.04 164.58 130.59 166.75 129 166.5 C 124.98 165.88 120.97 164.57 117.47 162.5 C 115.42 161.29 114.65 158.65 112.94 157 C 107.95 152.19 99.41 146.95 93.34 143.78 C 86.88 140.41 86.55 150.58 86 155 C 85.8 156.64 86.44 176.38 81.69 180.38 C 79.32 182.37 69.77 180.83 67.81 178.5 C 65.08 175.26 71.01 170.55 71.53 166.34 C 72.43 159.1 72.72 151.72 72.09 144.44 C 71.86 141.76 69.48 139.64 69 137 C 65.76 119.04 62.01 95.51 75.38 80.63 C 86.44 68.3 103.7 67.31 119.56 67.16 C 124.57 67.11 128.66 73.14 133.63 72.47 C 141.44 71.41 148.3 66.5 155.03 62.38 C 165.13 56.18 154.93 53.69 156.28 44.09 C 157.24 37.25 158.36 28.84 164 24.84 C 178.18 14.8 241.77 18.43 257.13 37 Z M 198.69 45.75 C 189.69 56.24 198.42 58.79 197.72 68.97 C 197.58 70.95 194.43 71.86 194.31 73.84 C 194.03 78.78 194.78 83.9 196.59 88.5 C 199.14 94.96 202.8 101.06 207.16 106.47 C 209.21 109.02 213.22 112.44 216 110.72 C 221.48 107.33 221.64 93.02 224 87.47 C 225.53 83.85 225.49 77.26 229.41 77 C 233.3 76.74 237.36 88.79 239.03 92.25 C 239.5 93.22 240.15 95.97 240.69 95.03 C 241.65 93.36 240.55 91.17 240.75 89.25 C 241.6 81.16 243.9 78.44 241.06 70.53 C 240.5 68.96 238.26 68.33 237.81 66.72 C 235.68 59.09 242.48 58.62 247.38 54.69 C 247.8 54.35 248.41 53.55 248 53.19 C 242.2 48.09 239.63 46.68 233.16 51.47 C 231.15 52.95 229.51 57.64 228.16 59.84 C 227.63 60.7 227.01 62.94 226.31 62.22 C 224.35 60.21 224.84 56.56 222.94 54.5 C 218.77 49.99 214.31 45.09 208.53 43 C 205.33 41.84 200.91 43.16 198.69 45.75 Z" fill="#000000"/>
    <path d="M 206.75 50.38 C 205.08 49.7 198.11 51.97 198.72 54.44 C 199.11 56.02 205.73 63.15 209.56 63.13 C 214.84 63.09 217.91 60.85 213.69 55.13 C 212.03 52.87 209.35 51.42 206.75 50.38 Z" fill="#000000"/>
  </g>
</svg>